<mxfile host="app.diagrams.net" modified="2023-07-24T03:48:05.776Z" agent="Mozilla/5.0 (Windows NT 10.0; Win64; x64; rv:109.0) Gecko/20100101 Firefox/115.0" version="21.6.3" etag="03rUAWj4-Jqo1OG5e3PG" type="github">
  <diagram name="第 1 页" id="B7xcITIM5PPK4M47ZsxW">
    <mxGraphModel>
      <root>
        <mxCell id="0" />
        <mxCell id="1" parent="0" />
      </root>
    </mxGraphModel>
  </diagram>
</mxfile>
